<svg width="26" height="21" viewBox="0 0 26 21" fill="none"
    xmlns="http://www.w3.org/2000/svg">
    <path d="M25.5616 1.82253C25.2105 5.512 23.6911 14.4652 22.9179 18.5975C22.5908 20.346 21.9467 20.9323 21.3233 20.9896C19.9685 21.1143 18.9395 20.0942 17.6271 19.2339C15.5736 17.8878 14.4134 17.0498 12.42 15.7362C10.1164 14.2182 11.6097 13.3841 12.9226 12.0199C13.2662 11.663 19.2362 6.23286 19.3517 5.74024C19.3661 5.67862 19.38 5.44859 19.2432 5.32778C19.1064 5.20698 18.9054 5.24791 18.76 5.28074C18.5541 5.32753 15.2735 7.49589 8.91822 11.7858C7.98711 12.4252 7.14369 12.7368 6.38795 12.7204C5.55485 12.7025 3.95233 12.2495 2.76096 11.8621C1.29976 11.3872 0.138399 11.1361 0.239538 10.3294C0.292225 9.90918 0.870835 9.47954 1.97537 9.04048C8.77732 6.077 13.313 4.12321 15.5824 3.17912C22.0621 0.483922 23.4085 0.0157645 24.2861 0.000146759C24.4792 -0.00305206 24.9107 0.0447436 25.1902 0.271578C25.3762 0.433164 25.4947 0.658654 25.5224 0.903439C25.5697 1.20738 25.5829 1.51567 25.5616 1.82253Z" fill="#979797" style="fill:#979797;fill:color(display-p3 0.5922 0.5922 0.5922);fill-opacity:1;"/>
</svg>
