<svg width="29" height="27" viewBox="0 0 29 27" fill="none"
    xmlns="http://www.w3.org/2000/svg">
    <path d="M14.5207 1.16026e-06C6.70582 -0.0030973 0.376221 6.20002 0.376221 13.8563C0.376221 19.9107 4.33578 25.0573 9.85009 26.9473C10.5927 27.1301 10.4789 26.6127 10.4789 26.2595V23.8582C6.19074 24.3508 6.01693 21.5684 5.72937 21.1036C5.14791 20.1307 3.77329 19.8828 4.1841 19.4181C5.16055 18.9254 6.15597 19.542 7.3094 21.2121C8.14365 22.4236 9.77108 22.2191 10.5959 22.0177C10.776 21.2895 11.1615 20.6389 11.6924 20.1338C7.24936 19.353 5.39756 16.6945 5.39756 13.5341C5.39756 12.0003 5.91265 10.5905 6.92387 9.45341C6.27922 7.57884 6.98391 5.97384 7.07871 5.73525C8.91471 5.57413 10.8234 7.02421 10.9719 7.13886C12.0147 6.86309 13.2061 6.71747 14.5396 6.71747C15.8795 6.71747 17.074 6.86929 18.1263 7.14815C18.4834 6.88169 20.253 5.6361 21.9594 5.78793C22.0511 6.02651 22.74 7.59433 22.1332 9.44411C23.1571 10.5843 23.6785 12.0065 23.6785 13.5434C23.6785 16.71 21.8141 19.3716 17.3584 20.14C18.101 20.8588 18.5624 21.8566 18.5624 22.9596V26.4454C18.5877 26.7242 18.5624 27 19.0364 27C24.6329 25.1502 28.6619 19.9665 28.6619 13.8594C28.6619 6.20002 22.3292 1.16026e-06 14.5207 1.16026e-06Z" fill="#979797" style="fill:#979797;fill:color(display-p3 0.5922 0.5922 0.5922);fill-opacity:1;"/>
</svg>
