<svg width="24" height="24" viewBox="0 0 24 24" fill="none"
    xmlns="http://www.w3.org/2000/svg">
    <path fill-rule="evenodd" clip-rule="evenodd" d="M12.0013 0.750001C5.37057 0.747419 0 5.91668 0 12.2969C0 17.3423 3.35962 21.631 8.03843 23.2061C8.59612 23.3409 8.58459 23.0186 8.57458 22.7387C8.57328 22.7023 8.57201 22.6667 8.57201 22.6329V20.6318C5.46609 20.9822 4.90402 19.3439 4.65425 18.6159C4.61142 18.4911 4.57778 18.393 4.54206 18.3363C4.30903 17.9534 3.92584 17.7052 3.62308 17.5091C3.28486 17.2901 3.047 17.1361 3.23092 16.9317C4.05944 16.5212 4.90403 17.035 5.8827 18.4267C6.59055 19.4363 7.9714 19.2659 8.67121 19.098C8.82404 18.4913 9.15115 17.949 9.60161 17.5282C5.83175 16.8775 4.26053 14.6621 4.26053 12.0284C4.26053 10.7503 4.69758 9.57545 5.55558 8.62784C5.0286 7.1228 5.56434 5.82628 5.67615 5.5557L5.68696 5.52938C7.24478 5.39511 8.86426 6.60351 8.99028 6.69905C9.8751 6.46924 10.8859 6.34788 12.0174 6.34788C13.1543 6.34788 14.1678 6.47441 15.0607 6.70679C15.3636 6.48474 16.8652 5.44675 18.313 5.57327L18.327 5.6082C18.4429 5.89437 18.9513 7.15045 18.4605 8.6201C19.3292 9.57029 19.7716 10.7554 19.7716 12.0361C19.7716 14.675 18.1897 16.893 14.4091 17.5333C15.0392 18.1324 15.4307 18.9638 15.4307 19.883V22.7878C15.4326 22.8083 15.4341 22.8288 15.4357 22.8491C15.4516 23.059 15.4662 23.25 15.8329 23.25C20.5814 21.7085 24 17.3887 24 12.2995C24 5.91668 18.6267 0.750001 12.0013 0.750001Z" fill="white" style="fill:white;fill-opacity:1;"/>
</svg>
