<svg width="23" height="24" viewBox="0 0 23 24" fill="none"
    xmlns="http://www.w3.org/2000/svg">
    <path d="M22.3755 23.4813C22.2894 23.6381 22.1628 23.7689 22.0089 23.8602C21.855 23.9514 21.6794 23.9997 21.5005 24H15.5005C15.3322 23.9999 15.1666 23.9574 15.0191 23.8764C14.8716 23.7953 14.747 23.6783 14.6567 23.5362L9.59549 15.5825L2.24049 23.6725C2.06119 23.8651 1.8132 23.9793 1.55029 23.9903C1.28738 24.0012 1.03074 23.9082 0.836001 23.7312C0.641264 23.5542 0.52413 23.3076 0.509994 23.0448C0.495858 22.7821 0.58586 22.5243 0.760487 22.3275L8.48174 13.8275L0.656736 1.5375C0.560363 1.3863 0.506414 1.21198 0.500537 1.03278C0.494661 0.853574 0.537073 0.676088 0.623333 0.518902C0.709593 0.361717 0.836528 0.230615 0.990846 0.139325C1.14516 0.0480342 1.32119 -8.70794e-05 1.50049 1.18294e-07H7.50049C7.66879 5.21628e-05 7.83435 0.0425814 7.98185 0.123647C8.12934 0.204713 8.25398 0.321693 8.34424 0.46375L13.4055 8.4175L20.7605 0.3275C20.9398 0.134898 21.1878 0.0207293 21.4507 0.00974476C21.7136 -0.0012398 21.9702 0.0918457 22.165 0.26882C22.3597 0.445794 22.4768 0.692393 22.491 0.955153C22.5051 1.21791 22.4151 1.47565 22.2405 1.6725L14.5192 10.1663L22.3442 22.4638C22.4401 22.615 22.4935 22.7892 22.499 22.9682C22.5045 23.1472 22.4619 23.3244 22.3755 23.4813Z" fill="#979797" style="fill:#979797;fill:color(display-p3 0.5922 0.5922 0.5922);fill-opacity:1;"/>
</svg>
