<svg width="23" height="28" viewBox="0 0 23 28" fill="none"
    xmlns="http://www.w3.org/2000/svg">
    <path d="M22.5 11V17C22.5 19.9174 21.3411 22.7153 19.2782 24.7782C17.2153 26.8411 14.4174 28 11.5 28C8.58262 28 5.78473 26.8411 3.72183 24.7782C1.65893 22.7153 0.5 19.9174 0.5 17V6C0.5 5.46957 0.710714 4.96086 1.08579 4.58579C1.46086 4.21071 1.96957 4 2.5 4C3.03043 4 3.53914 4.21071 3.91421 4.58579C4.28929 4.96086 4.5 5.46957 4.5 6V13C4.5 13.2652 4.60536 13.5196 4.79289 13.7071C4.98043 13.8946 5.23478 14 5.5 14C5.76522 14 6.01957 13.8946 6.20711 13.7071C6.39464 13.5196 6.5 13.2652 6.5 13V2C6.5 1.46957 6.71071 0.960859 7.08579 0.585786C7.46086 0.210714 7.96957 0 8.5 0C9.03043 0 9.53914 0.210714 9.91421 0.585786C10.2893 0.960859 10.5 1.46957 10.5 2V12C10.5 12.2652 10.6054 12.5196 10.7929 12.7071C10.9804 12.8946 11.2348 13 11.5 13C11.7652 13 12.0196 12.8946 12.2071 12.7071C12.3946 12.5196 12.5 12.2652 12.5 12V4C12.5 3.46957 12.7107 2.96086 13.0858 2.58579C13.4609 2.21071 13.9696 2 14.5 2C15.0304 2 15.5391 2.21071 15.9142 2.58579C16.2893 2.96086 16.5 3.46957 16.5 4V14.0837C15.1027 14.3219 13.8346 15.0463 12.9197 16.1289C12.0048 17.2115 11.502 18.5826 11.5 20C11.5 20.2652 11.6054 20.5196 11.7929 20.7071C11.9804 20.8946 12.2348 21 12.5 21C12.7652 21 13.0196 20.8946 13.2071 20.7071C13.3946 20.5196 13.5 20.2652 13.5 20C13.5 18.9391 13.9214 17.9217 14.6716 17.1716C15.4217 16.4214 16.4391 16 17.5 16C17.7652 16 18.0196 15.8946 18.2071 15.7071C18.3946 15.5196 18.5 15.2652 18.5 15V11C18.5 10.4696 18.7107 9.96086 19.0858 9.58579C19.4609 9.21071 19.9696 9 20.5 9C21.0304 9 21.5391 9.21071 21.9142 9.58579C22.2893 9.96086 22.5 10.4696 22.5 11Z" fill="white" style="fill:white;fill-opacity:1;"/>
</svg>
