<svg width="161" height="160" viewBox="0 0 161 160" fill="none"
    xmlns="http://www.w3.org/2000/svg">
    <path d="M126.733 -2.07839e-05C145.29 -2.15951e-05 160.334 15.0432 160.334 33.6L160.334 105.6L109.134 105.6L109.134 51.2L54.7335 51.2L54.7335 -3.28955e-05L126.733 -2.07839e-05Z" fill="white" style="fill:white;fill-opacity:1;"/>
    <path d="M33.9335 160C15.3767 160 0.333497 144.957 0.333496 126.4L0.333493 54.4L51.5335 54.4L51.5335 108.8L105.933 108.8L105.934 160L33.9335 160Z" fill="white" style="fill:white;fill-opacity:1;"/>
    <path d="M25.9335 51.2C11.795 51.2 0.333488 39.7385 0.33349 25.6C0.33349 11.4615 11.795 -3.10186e-05 25.9335 -3.16366e-05C40.072 -3.22546e-05 51.5335 11.4615 51.5335 25.6C51.5335 39.7385 40.072 51.2 25.9335 51.2Z" fill="white" style="fill:white;fill-opacity:1;"/>
    <path d="M105.933 80C105.934 65.8615 94.472 54.4 80.3335 54.4C66.195 54.4 54.7335 65.8615 54.7335 80C54.7335 94.1385 66.195 105.6 80.3335 105.6C94.472 105.6 105.933 94.1385 105.933 80Z" fill="white" style="fill:white;fill-opacity:1;"/>
    <path d="M160.334 134.4C160.334 120.262 148.872 108.8 134.734 108.8C120.595 108.8 109.134 120.262 109.134 134.4C109.134 148.538 120.595 160 134.734 160C148.872 160 160.334 148.538 160.334 134.4Z" fill="white" style="fill:white;fill-opacity:1;"/>
</svg>
