<svg width="160" height="160" viewBox="0 0 160 160" fill="none"
    xmlns="http://www.w3.org/2000/svg">
    <path d="M111.2 31.2C111.2 48.4313 97.2313 62.4 80 62.4C62.7687 62.4 48.8 48.4313 48.8 31.2C48.8 13.9687 62.7687 0 80 0C97.2313 0 111.2 13.9687 111.2 31.2Z" fill="white" style="fill:white;fill-opacity:1;"/>
    <path d="M111.2 128.8C111.2 146.031 97.2313 160 80 160C62.7687 160 48.8 146.031 48.8 128.8C48.8 111.569 62.7687 97.6 80 97.6C97.2313 97.6 111.2 111.569 111.2 128.8Z" fill="white" style="fill:white;fill-opacity:1;"/>
    <path d="M128.8 111.2C111.569 111.2 97.6 97.2313 97.6 80C97.6 62.7687 111.569 48.8 128.8 48.8C146.031 48.8 160 62.7687 160 80C160 97.2313 146.031 111.2 128.8 111.2Z" fill="white" style="fill:white;fill-opacity:1;"/>
    <path d="M31.2 111.2C13.9687 111.2 -7.53203e-07 97.2313 0 80C7.53203e-07 62.7687 13.9687 48.8 31.2 48.8C48.4313 48.8 62.4 62.7687 62.4 80C62.4 97.2313 48.4313 111.2 31.2 111.2Z" fill="white" style="fill:white;fill-opacity:1;"/>
</svg>
