<svg width="161" height="160" viewBox="0 0 161 160" fill="none"
    xmlns="http://www.w3.org/2000/svg">
    <path d="M147.671 80C150.121 86.0185 151.215 92.7053 150.8 99.6367C150.037 112.355 144.253 124.855 134.721 134.388C125.189 143.92 112.688 149.704 99.9702 150.466C93.0387 150.882 86.352 149.787 80.3335 147.337L147.671 80Z" fill="white" style="fill:white;fill-opacity:1;"/>
    <path d="M80.3335 12.6629C74.315 10.2125 67.6282 9.11815 60.6967 9.53377C47.9785 10.2963 35.4782 16.08 25.9459 25.6124C16.4135 35.1448 10.6299 47.645 9.86728 60.3633C9.45167 67.2947 10.546 73.9815 12.9964 80L80.3335 12.6629Z" fill="white" style="fill:white;fill-opacity:1;"/>
    <path d="M49.2548 2.30337C45.0556 0.574369 40.3964 -0.213182 35.5726 0.0494827C26.7217 0.531447 18.0418 4.50967 11.4425 11.109C4.84317 17.7083 0.864943 26.3882 0.382989 35.2391C0.120323 40.0629 0.907873 44.7221 2.63689 48.9213L49.2548 2.30337Z" fill="white" style="fill:white;fill-opacity:1;"/>
    <path d="M111.412 157.697C115.611 159.426 120.271 160.213 125.094 159.951C133.945 159.469 142.625 155.49 149.224 148.891C155.824 142.292 159.802 133.612 160.284 124.761C160.547 119.937 159.759 115.278 158.03 111.079L111.412 157.697Z" fill="white" style="fill:white;fill-opacity:1;"/>
    <path d="M158.03 48.9213C159.759 44.7221 160.547 40.0629 160.284 35.2391C159.802 26.3882 155.824 17.7083 149.224 11.109C142.625 4.50967 133.945 0.531443 125.094 0.0494941C120.271 -0.213171 115.611 0.574366 111.412 2.30339L158.03 48.9213Z" fill="white" style="fill:white;fill-opacity:1;"/>
    <path d="M2.63688 111.079C0.907864 115.278 0.120314 119.937 0.38298 124.761C0.864938 133.612 4.84317 142.292 11.4425 148.891C18.0418 155.49 26.7217 159.469 35.5726 159.95C40.3964 160.213 45.0556 159.426 49.2548 157.697L2.63688 111.079Z" fill="white" style="fill:white;fill-opacity:1;"/>
    <path d="M80.3335 147.337C74.315 149.787 67.6282 150.882 60.6967 150.466C47.9785 149.704 35.4782 143.92 25.9459 134.388C16.4135 124.855 10.6299 112.355 9.86728 99.6367C9.45167 92.7053 10.546 86.0185 12.9964 80L80.3335 147.337Z" fill="white" style="fill:white;fill-opacity:1;"/>
    <path d="M147.671 80C150.121 73.9815 151.215 67.2947 150.8 60.3632C150.037 47.645 144.253 35.1447 134.721 25.6124C125.189 16.08 112.688 10.2964 99.9702 9.53378C93.0388 9.11818 86.352 10.2125 80.3335 12.6629L147.671 80Z" fill="white" style="fill:white;fill-opacity:1;"/>
    <path d="M114.002 46.3315C132.597 64.9261 132.597 95.0739 114.002 113.669C95.4074 132.263 65.2596 132.263 46.665 113.669C28.0704 95.0739 28.0704 64.9261 46.665 46.3315C65.2596 27.7368 95.4074 27.7368 114.002 46.3315Z" fill="white" style="fill:white;fill-opacity:1;"/>
</svg>
