<svg width="161" height="160" viewBox="0 0 161 160" fill="none"
    xmlns="http://www.w3.org/2000/svg">
    <path d="M160.667 24C160.667 37.2548 149.922 48 136.667 48C123.412 48 112.667 37.2548 112.667 24C112.667 10.7452 123.412 0 136.667 0C149.922 0 160.667 10.7452 160.667 24Z" fill="white" style="fill:white;fill-opacity:1;"/>
    <path d="M160.667 136C160.667 149.255 149.922 160 136.667 160C123.412 160 112.667 149.255 112.667 136C112.667 122.745 123.412 112 136.667 112C149.922 112 160.667 122.745 160.667 136Z" fill="white" style="fill:white;fill-opacity:1;"/>
    <path d="M121.467 80C121.467 102.533 103.2 120.8 80.6667 120.8C58.1335 120.8 39.8667 102.533 39.8667 80C39.8667 57.4668 58.1335 39.2 80.6667 39.2C103.2 39.2 121.467 57.4668 121.467 80Z" fill="white" style="fill:white;fill-opacity:1;"/>
    <path d="M48.6667 24C48.6667 37.2548 37.9216 48 24.6667 48C11.4119 48 0.666748 37.2548 0.666748 24C0.666748 10.7452 11.4119 0 24.6667 0C37.9216 0 48.6667 10.7452 48.6667 24Z" fill="white" style="fill:white;fill-opacity:1;"/>
    <path d="M48.6667 136C48.6667 149.255 37.9216 160 24.6667 160C11.4119 160 0.666748 149.255 0.666748 136C0.666748 122.745 11.4119 112 24.6667 112C37.9216 112 48.6667 122.745 48.6667 136Z" fill="white" style="fill:white;fill-opacity:1;"/>
</svg>
