<svg width="136" height="30" viewBox="0 0 136 30" fill="none"
    xmlns="http://www.w3.org/2000/svg">
    <path fill-rule="evenodd" clip-rule="evenodd" d="M10.1602 12L9.23655 30H0V20L10.1602 12ZM10.1602 12L27.7097 20V30H18.4731L10.1602 12ZM9.23655 0L10.1602 12L0 10V0H9.23655ZM27.7097 0V10L10.1602 12L18.4731 0H27.7097ZM40.6408 8.08296H46.1571C47.5345 8.08296 48.6001 8.22815 49.3538 8.51852C50.7442 9.05778 51.6733 10.0464 52.1411 11.4844C52.492 12.5906 52.6674 13.7728 52.6674 15.0311C52.6674 16.2756 52.4985 17.4509 52.1606 18.557C51.8228 19.6909 51.264 20.5274 50.4843 21.0667C49.9905 21.3985 49.448 21.6232 48.8567 21.7407C48.2655 21.8583 47.3656 21.917 46.1571 21.917H40.6408V8.08296ZM43.4087 10.5511V19.4489H46.1571C47.3656 19.4489 48.2038 19.1654 48.6716 18.5985C48.9574 18.239 49.1881 17.7343 49.3635 17.0844C49.539 16.4346 49.6267 15.7432 49.6267 15.0104C49.6267 14.1946 49.5227 13.4479 49.3148 12.7704C49.1069 12.0928 48.834 11.5882 48.4961 11.2563C48.0023 10.7862 47.2227 10.5511 46.1571 10.5511H43.4087ZM65.9816 8.08296V10.5511H62.3756C61.44 10.5511 60.7578 10.6202 60.329 10.7585C59.9001 10.8968 59.5428 11.1664 59.2569 11.5674C59.062 11.8439 58.9288 12.1205 58.8573 12.397C58.7858 12.6736 58.7241 13.1437 58.6721 13.8074H65.9816V16.2756H58.6721C58.7761 17.4647 59.1074 18.2909 59.6662 18.7541C60.225 19.2173 61.1736 19.4489 62.5121 19.4489H65.9816V21.917H62.3756C61.401 21.917 60.5434 21.8548 59.8027 21.7304C58.6331 21.523 57.704 20.9768 57.0153 20.0919C56.0277 18.8198 55.5339 17.0983 55.5339 14.9274C55.5339 12.5215 56.2291 10.6479 57.6196 9.30667C58.1004 8.85037 58.6104 8.53235 59.1497 8.35259C59.689 8.17284 60.4134 8.08296 61.323 8.08296H65.9816ZM74.3254 13.7037H80.6993V21.917H74.8907C73.8901 21.917 73.0941 21.8375 72.5029 21.6785C71.9116 21.5195 71.3756 21.2395 70.8948 20.8385C69.5303 19.7185 68.8481 17.7896 68.8481 15.0519C68.8481 13.2681 69.173 11.7817 69.8227 10.5926C70.3035 9.72148 70.9598 9.08543 71.7914 8.68444C72.6231 8.28346 73.7016 8.08296 75.0271 8.08296H80.6993V10.5511H75.339C74.1824 10.5511 73.3443 10.8207 72.8245 11.36C72.2008 11.996 71.8889 13.1368 71.8889 14.7822C71.8889 15.6257 71.9701 16.3862 72.1325 17.0637C72.295 17.7412 72.5191 18.2459 72.805 18.5778C73.0519 18.882 73.393 19.1032 73.8283 19.2415C74.2637 19.3798 74.7997 19.4489 75.4364 19.4489H77.9509V16.1719H74.3254V13.7037ZM89.9786 8C91.2781 8 92.4216 8.23506 93.4092 8.70518C94.5658 9.2721 95.3779 10.2193 95.8457 11.5467C96.2096 12.5837 96.3915 13.8005 96.3915 15.197C96.3915 16.6074 96.1706 17.8311 95.7288 18.8681C95.17 20.0988 94.3124 20.963 93.1558 21.4607C92.2982 21.8202 91.3106 22 90.193 22C88.7246 22 87.4512 21.7096 86.3726 21.1289C85.463 20.6449 84.7678 19.8844 84.287 18.8474C83.8062 17.8104 83.5658 16.5521 83.5658 15.0726C83.5658 12.4316 84.183 10.5511 85.4175 9.43111C86.4571 8.49086 87.9775 8.01383 89.9786 8ZM89.9981 10.323C88.7246 10.323 87.815 10.7654 87.2692 11.6504C86.8274 12.3417 86.6065 13.4548 86.6065 14.9896C86.6065 16.6074 86.8794 17.7965 87.4252 18.557C87.971 19.3037 88.8351 19.677 90.0176 19.677C91.1612 19.677 92.0026 19.2968 92.5418 18.5363C93.0811 17.7758 93.3508 16.6005 93.3508 15.0104C93.3508 13.5585 93.1298 12.4523 92.688 11.6919C92.1812 10.7931 91.2846 10.3368 89.9981 10.323ZM100.991 8.08296L104.812 18.4948L108.691 8.08296H111.809L106.118 21.917H103.35L97.8725 8.08296H100.991ZM112.878 19.2207V21.917H110.519V19.2207H112.878ZM115.744 21.917L121.124 8.08296H124.301L129.681 21.917H126.445L125.179 18.723H120.247L118.98 21.917H115.744ZM122.723 11.4222L120.871 16.2548H124.574L122.723 11.4222ZM132.548 21.917V8.08296H135.316V21.917H132.548Z" fill="white" style="fill:white;fill-opacity:1;"/>
</svg>
