<svg width="17" height="14" viewBox="0 0 17 14" fill="none"
    xmlns="http://www.w3.org/2000/svg">
    <path fill-rule="evenodd" clip-rule="evenodd" d="M13.2656 6.49915C12.9536 6.21187 12.5913 5.86468 12.2102 5.47264C11.1056 4.33657 9.80079 2.78137 9.13831 1.19137L10.0614 0.806767C10.649 2.21687 11.8442 3.66163 12.9271 4.77556C13.4633 5.32707 13.9616 5.78706 14.3256 6.1089C14.5075 6.26969 14.6554 6.39566 14.7573 6.48096C14.8082 6.5236 14.8476 6.55605 14.874 6.57759L14.9035 6.6016L14.9105 6.60728L14.9121 6.60852L15.4003 6.9991L14.9123 7.38947L14.9105 7.39092L14.9035 7.39661L14.874 7.42062C14.8476 7.44215 14.8082 7.4746 14.7573 7.51725C14.6554 7.60254 14.5075 7.72851 14.3256 7.8893C13.9616 8.21114 13.4633 8.67113 12.9271 9.22264C11.8442 10.3366 10.649 11.7813 10.0614 13.1914L9.13831 12.8068C9.80079 11.2169 11.1056 9.66163 12.2102 8.52556C12.5913 8.13356 12.9536 7.78641 13.2655 7.49915L0.599853 7.49915L0.599853 6.49915L13.2656 6.49915Z" fill="white" stroke="white" style="fill:white;fill-opacity:1;stroke:white;stroke-opacity:1;"/>
</svg>
