<svg width="16" height="14" viewBox="0 0 16 14" fill="none"
    xmlns="http://www.w3.org/2000/svg">
    <g clip-path="url(#clip0_5327_14585)">
        <path fill-rule="evenodd" clip-rule="evenodd" d="M13.066 6.4718C12.754 6.18452 12.3917 5.83733 12.0106 5.44529C10.906 4.30922 9.60121 2.75402 8.93873 1.16402L9.86181 0.779423C10.4494 2.18952 11.6446 3.63428 12.7275 4.74821C13.2637 5.29972 13.762 5.75971 14.126 6.08155C14.3079 6.24234 14.4558 6.36831 14.5577 6.45361C14.6086 6.49625 14.648 6.5287 14.6744 6.55024L14.7039 6.57425L14.7109 6.57993L14.7125 6.58117L15.2007 6.97175L14.7127 7.36212L14.7109 7.36357L14.7039 7.36926L14.6744 7.39327C14.648 7.4148 14.6086 7.44725 14.5577 7.4899C14.4558 7.57519 14.3079 7.70116 14.126 7.86195C13.762 8.18379 13.2637 8.64378 12.7275 9.19529C11.6446 10.3092 10.4494 11.754 9.86181 13.1641L8.93873 12.7794C9.60121 11.1895 10.906 9.63428 12.0106 8.49821C12.3917 8.10621 12.754 7.75906 13.0659 7.4718L0.400268 7.4718L0.400268 6.4718L13.066 6.4718Z" fill="#202224" stroke="#202224" style="fill:#202224;fill:color(display-p3 0.1255 0.1333 0.1412);fill-opacity:1;stroke:#202224;stroke:color(display-p3 0.1255 0.1333 0.1412);stroke-opacity:1;"/>
    </g>
    <defs>
        <clipPath id="clip0_5327_14585">
            <rect width="13" height="15" fill="white" style="fill:white;fill-opacity:1;" transform="translate(0.400269 13.5) rotate(-90)"/>
        </clipPath>
    </defs>
</svg>
